<svg width="250" height="38" viewBox="0 0 250 38" fill="none" xmlns="http://www.w3.org/2000/svg">
<path d="M0 11.4211C0 6.77023 3.77023 3 8.42105 3H23.5789C28.2298 3 32 6.77023 32 11.4211V26.5789C32 31.2298 28.2298 35 23.5789 35H8.42105C3.77023 35 0 31.2298 0 26.5789V11.4211Z" fill="#465FFF"/>
<g filter="url(#filter0_d_54604_29855)">
<path d="M8.42383 11.4215C8.42383 10.4914 9.17787 9.7373 10.108 9.7373C11.0382 9.7373 11.7922 10.4914 11.7922 11.4215V26.5794C11.7922 27.5096 11.0382 28.2636 10.108 28.2636C9.17787 28.2636 8.42383 27.5096 8.42383 26.5794V11.4215Z" fill="white"/>
</g>
<g filter="url(#filter1_d_54604_29855)">
<path d="M14.7422 18.1569C14.7422 17.2267 15.4962 16.4727 16.4264 16.4727C17.3566 16.4727 18.1106 17.2267 18.1106 18.1569V26.5779C18.1106 27.5081 17.3566 28.2621 16.4264 28.2621C15.4962 28.2621 14.7422 27.5081 14.7422 26.5779V18.1569Z" fill="white" fill-opacity="0.9" shape-rendering="crispEdges"/>
</g>
<g filter="url(#filter2_d_54604_29855)">
<path d="M21.0547 13.9459C21.0547 13.0158 21.8087 12.2617 22.7389 12.2617C23.6691 12.2617 24.4231 13.0158 24.4231 13.9459V26.5775C24.4231 27.5077 23.6691 28.2617 22.7389 28.2617C21.8087 28.2617 21.0547 27.5077 21.0547 26.5775V13.9459Z" fill="white" fill-opacity="0.7" shape-rendering="crispEdges"/>
</g>
<path d="M61.22 30V25.86H66.47C67.75 25.86 68.87 25.61 69.83 25.11C70.79 24.59 71.53 23.84 72.05 22.86C72.57 21.88 72.83 20.72 72.83 19.38C72.83 18.04 72.56 16.89 72.02 15.93C71.5 14.97 70.76 14.23 69.8 13.71C68.86 13.19 67.75 12.93 66.47 12.93H61.07V8.82H66.53C68.13 8.82 69.6 9.08 70.94 9.6C72.3 10.1 73.48 10.83 74.48 11.79C75.5 12.73 76.28 13.85 76.82 15.15C77.38 16.43 77.66 17.85 77.66 19.41C77.66 20.95 77.38 22.37 76.82 23.67C76.28 24.97 75.51 26.09 74.51 27.03C73.51 27.97 72.33 28.7 70.97 29.22C69.63 29.74 68.17 30 66.59 30H61.22ZM58.04 30V8.82H62.75V30H58.04ZM86.3272 30.3C84.9872 30.3 83.7872 29.97 82.7272 29.31C81.6872 28.65 80.8572 27.75 80.2372 26.61C79.6372 25.47 79.3372 24.17 79.3372 22.71C79.3372 21.25 79.6372 19.95 80.2372 18.81C80.8572 17.67 81.6872 16.77 82.7272 16.11C83.7872 15.45 84.9872 15.12 86.3272 15.12C87.3072 15.12 88.1872 15.31 88.9672 15.69C89.7672 16.07 90.4172 16.6 90.9172 17.28C91.4172 17.94 91.6972 18.7 91.7572 19.56V25.86C91.6972 26.72 91.4172 27.49 90.9172 28.17C90.4372 28.83 89.7972 29.35 88.9972 29.73C88.1972 30.11 87.3072 30.3 86.3272 30.3ZM87.2572 26.16C88.2372 26.16 89.0272 25.84 89.6272 25.2C90.2272 24.54 90.5272 23.71 90.5272 22.71C90.5272 22.03 90.3872 21.43 90.1072 20.91C89.8472 20.39 89.4672 19.99 88.9672 19.71C88.4872 19.41 87.9272 19.26 87.2872 19.26C86.6472 19.26 86.0772 19.41 85.5772 19.71C85.0972 19.99 84.7072 20.39 84.4072 20.91C84.1272 21.43 83.9872 22.03 83.9872 22.71C83.9872 23.37 84.1272 23.96 84.4072 24.48C84.6872 25 85.0772 25.41 85.5772 25.71C86.0772 26.01 86.6372 26.16 87.2572 26.16ZM90.3472 30V26.07L91.0372 22.53L90.3472 18.99V15.42H94.8472V30H90.3472ZM103.389 30.36C102.529 30.36 101.679 30.25 100.839 30.03C100.019 29.81 99.249 29.5 98.529 29.1C97.829 28.68 97.229 28.2 96.729 27.66L99.339 25.02C99.819 25.54 100.389 25.95 101.049 26.25C101.709 26.53 102.429 26.67 103.209 26.67C103.749 26.67 104.159 26.59 104.439 26.43C104.739 26.27 104.889 26.05 104.889 25.77C104.889 25.41 104.709 25.14 104.349 24.96C104.009 24.76 103.569 24.59 103.029 24.45C102.489 24.29 101.919 24.12 101.319 23.94C100.719 23.76 100.149 23.51 99.609 23.19C99.069 22.87 98.629 22.43 98.289 21.87C97.949 21.29 97.779 20.56 97.779 19.68C97.779 18.74 98.019 17.93 98.499 17.25C98.979 16.55 99.659 16 100.539 15.6C101.419 15.2 102.449 15 103.629 15C104.869 15 106.009 15.22 107.049 15.66C108.109 16.08 108.969 16.71 109.629 17.55L107.019 20.19C106.559 19.65 106.039 19.27 105.459 19.05C104.899 18.83 104.349 18.72 103.809 18.72C103.289 18.72 102.899 18.8 102.639 18.96C102.379 19.1 102.249 19.31 102.249 19.59C102.249 19.89 102.419 20.13 102.759 20.31C103.099 20.49 103.539 20.65 104.079 20.79C104.619 20.93 105.189 21.1 105.789 21.3C106.389 21.5 106.959 21.77 107.499 22.11C108.039 22.45 108.479 22.91 108.819 23.49C109.159 24.05 109.329 24.79 109.329 25.71C109.329 27.13 108.789 28.26 107.709 29.1C106.649 29.94 105.209 30.36 103.389 30.36ZM120.219 30.3C119.239 30.3 118.339 30.1 117.519 29.7C116.699 29.28 116.029 28.73 115.509 28.05C114.989 27.35 114.689 26.57 114.609 25.71V19.56C114.689 18.7 114.989 17.94 115.509 17.28C116.029 16.6 116.699 16.07 117.519 15.69C118.339 15.31 119.239 15.12 120.219 15.12C121.599 15.12 122.819 15.45 123.879 16.11C124.959 16.77 125.799 17.67 126.399 18.81C127.019 19.95 127.329 21.25 127.329 22.71C127.329 24.17 127.019 25.47 126.399 26.61C125.799 27.75 124.959 28.65 123.879 29.31C122.819 29.97 121.599 30.3 120.219 30.3ZM111.819 30V8.22H116.409V18.99L115.659 22.53L116.349 26.07V30H111.819ZM119.409 26.16C120.049 26.16 120.609 26.01 121.089 25.71C121.589 25.41 121.979 25 122.259 24.48C122.539 23.96 122.679 23.37 122.679 22.71C122.679 22.03 122.539 21.43 122.259 20.91C121.979 20.39 121.589 19.99 121.089 19.71C120.609 19.41 120.049 19.26 119.409 19.26C118.769 19.26 118.199 19.41 117.699 19.71C117.199 19.99 116.809 20.39 116.529 20.91C116.269 21.43 116.139 22.03 116.139 22.71C116.139 23.39 116.279 23.99 116.559 24.51C116.839 25.03 117.219 25.44 117.699 25.74C118.199 26.02 118.769 26.16 119.409 26.16ZM136.681 30.33C135.181 30.33 133.821 30 132.601 29.34C131.401 28.66 130.451 27.74 129.751 26.58C129.051 25.42 128.701 24.12 128.701 22.68C128.701 21.24 129.051 19.95 129.751 18.81C130.451 17.67 131.401 16.77 132.601 16.11C133.801 15.43 135.161 15.09 136.681 15.09C138.201 15.09 139.561 15.42 140.761 16.08C141.961 16.74 142.911 17.65 143.611 18.81C144.311 19.95 144.661 21.24 144.661 22.68C144.661 24.12 144.311 25.42 143.611 26.58C142.911 27.74 141.961 28.66 140.761 29.34C139.561 30 138.201 30.33 136.681 30.33ZM136.681 26.16C137.341 26.16 137.921 26.02 138.421 25.74C138.921 25.44 139.301 25.03 139.561 24.51C139.841 23.97 139.981 23.36 139.981 22.68C139.981 22 139.841 21.41 139.561 20.91C139.281 20.39 138.891 19.99 138.391 19.71C137.911 19.41 137.341 19.26 136.681 19.26C136.041 19.26 135.471 19.41 134.971 19.71C134.471 19.99 134.081 20.39 133.801 20.91C133.521 21.43 133.381 22.03 133.381 22.71C133.381 23.37 133.521 23.97 133.801 24.51C134.081 25.03 134.471 25.44 134.971 25.74C135.471 26.02 136.041 26.16 136.681 26.16ZM153.036 30.3C151.696 30.3 150.496 29.97 149.436 29.31C148.396 28.65 147.566 27.75 146.946 26.61C146.346 25.47 146.046 24.17 146.046 22.71C146.046 21.25 146.346 19.95 146.946 18.81C147.566 17.67 148.396 16.77 149.436 16.11C150.496 15.45 151.696 15.12 153.036 15.12C154.016 15.12 154.896 15.31 155.676 15.69C156.476 16.07 157.126 16.6 157.626 17.28C158.126 17.94 158.406 18.7 158.466 19.56V25.86C158.406 26.72 158.126 27.49 157.626 28.17C157.146 28.83 156.506 29.35 155.706 29.73C154.906 30.11 154.016 30.3 153.036 30.3ZM153.966 26.16C154.946 26.16 155.736 25.84 156.336 25.2C156.936 24.54 157.236 23.71 157.236 22.71C157.236 22.03 157.096 21.43 156.816 20.91C156.556 20.39 156.176 19.99 155.676 19.71C155.196 19.41 154.636 19.26 153.996 19.26C153.356 19.26 152.786 19.41 152.286 19.71C151.806 19.99 151.416 20.39 151.116 20.91C150.836 21.43 150.696 22.03 150.696 22.71C150.696 23.37 150.836 23.96 151.116 24.48C151.396 25 151.786 25.41 152.286 25.71C152.786 26.01 153.346 26.16 153.966 26.16ZM157.056 30V26.07L157.746 22.53L157.056 18.99V15.42H161.556V30H157.056ZM164.788 30V15.42H169.378V30H164.788ZM169.378 21.99L167.458 20.49C167.838 18.79 168.478 17.47 169.378 16.53C170.278 15.59 171.528 15.12 173.128 15.12C173.828 15.12 174.438 15.23 174.958 15.45C175.498 15.65 175.968 15.97 176.368 16.41L173.638 19.86C173.438 19.64 173.188 19.47 172.888 19.35C172.588 19.23 172.248 19.17 171.868 19.17C171.108 19.17 170.498 19.41 170.038 19.89C169.598 20.35 169.378 21.05 169.378 21.99ZM183.391 30.3C182.011 30.3 180.781 29.97 179.701 29.31C178.641 28.65 177.801 27.75 177.181 26.61C176.581 25.47 176.281 24.17 176.281 22.71C176.281 21.25 176.581 19.95 177.181 18.81C177.801 17.67 178.641 16.77 179.701 16.11C180.781 15.45 182.011 15.12 183.391 15.12C184.391 15.12 185.291 15.31 186.091 15.69C186.911 16.07 187.581 16.6 188.101 17.28C188.641 17.94 188.941 18.7 189.001 19.56V25.71C188.941 26.57 188.651 27.35 188.131 28.05C187.611 28.73 186.941 29.28 186.121 29.7C185.301 30.1 184.391 30.3 183.391 30.3ZM184.201 26.16C184.861 26.16 185.431 26.02 185.911 25.74C186.391 25.44 186.771 25.03 187.051 24.51C187.331 23.99 187.471 23.39 187.471 22.71C187.471 22.03 187.331 21.44 187.051 20.94C186.791 20.42 186.411 20.01 185.911 19.71C185.431 19.41 184.871 19.26 184.231 19.26C183.591 19.26 183.021 19.41 182.521 19.71C182.041 20.01 181.651 20.42 181.351 20.94C181.071 21.46 180.931 22.05 180.931 22.71C180.931 23.37 181.071 23.96 181.351 24.48C181.631 25 182.021 25.41 182.521 25.71C183.021 26.01 183.581 26.16 184.201 26.16ZM191.791 30H187.291V26.07L187.981 22.53L187.201 18.99V8.22H191.791V30Z" fill="#1D2939"/>
<defs>
<filter id="filter0_d_54604_29855" x="7.42383" y="9.2373" width="5.36865" height="20.5264" filterUnits="userSpaceOnUse" color-interpolation-filters="sRGB">
<feFlood flood-opacity="0" result="BackgroundImageFix"/>
<feColorMatrix in="SourceAlpha" type="matrix" values="0 0 0 0 0 0 0 0 0 0 0 0 0 0 0 0 0 0 127 0" result="hardAlpha"/>
<feOffset dy="0.5"/>
<feGaussianBlur stdDeviation="0.5"/>
<feComposite in2="hardAlpha" operator="out"/>
<feColorMatrix type="matrix" values="0 0 0 0 0 0 0 0 0 0 0 0 0 0 0 0 0 0 0.12 0"/>
<feBlend mode="normal" in2="BackgroundImageFix" result="effect1_dropShadow_54604_29855"/>
<feBlend mode="normal" in="SourceGraphic" in2="effect1_dropShadow_54604_29855" result="shape"/>
</filter>
<filter id="filter1_d_54604_29855" x="13.7422" y="15.9727" width="5.36865" height="13.7894" filterUnits="userSpaceOnUse" color-interpolation-filters="sRGB">
<feFlood flood-opacity="0" result="BackgroundImageFix"/>
<feColorMatrix in="SourceAlpha" type="matrix" values="0 0 0 0 0 0 0 0 0 0 0 0 0 0 0 0 0 0 127 0" result="hardAlpha"/>
<feOffset dy="0.5"/>
<feGaussianBlur stdDeviation="0.5"/>
<feComposite in2="hardAlpha" operator="out"/>
<feColorMatrix type="matrix" values="0 0 0 0 0 0 0 0 0 0 0 0 0 0 0 0 0 0 0.12 0"/>
<feBlend mode="normal" in2="BackgroundImageFix" result="effect1_dropShadow_54604_29855"/>
<feBlend mode="normal" in="SourceGraphic" in2="effect1_dropShadow_54604_29855" result="shape"/>
</filter>
<filter id="filter2_d_54604_29855" x="20.0547" y="11.7617" width="5.36865" height="18" filterUnits="userSpaceOnUse" color-interpolation-filters="sRGB">
<feFlood flood-opacity="0" result="BackgroundImageFix"/>
<feColorMatrix in="SourceAlpha" type="matrix" values="0 0 0 0 0 0 0 0 0 0 0 0 0 0 0 0 0 0 127 0" result="hardAlpha"/>
<feOffset dy="0.5"/>
<feGaussianBlur stdDeviation="0.5"/>
<feComposite in2="hardAlpha" operator="out"/>
<feColorMatrix type="matrix" values="0 0 0 0 0 0 0 0 0 0 0 0 0 0 0 0 0 0 0.12 0"/>
<feBlend mode="normal" in2="BackgroundImageFix" result="effect1_dropShadow_54604_29855"/>
<feBlend mode="normal" in="SourceGraphic" in2="effect1_dropShadow_54604_29855" result="shape"/>
</filter>
</defs>
</svg>
