<svg width="251" height="38" viewBox="0 0 251 38" fill="none" xmlns="http://www.w3.org/2000/svg">
<path d="M0.5 11.4211C0.5 6.77023 4.27023 3 8.92105 3H24.0789C28.7298 3 32.5 6.77023 32.5 11.4211V26.5789C32.5 31.2298 28.7298 35 24.0789 35H8.92105C4.27023 35 0.5 31.2298 0.5 26.5789V11.4211Z" fill="#465FFF"/>
<g filter="url(#filter0_d_54612_4250)">
<path d="M8.92383 11.4215C8.92383 10.4914 9.67787 9.7373 10.608 9.7373C11.5382 9.7373 12.2922 10.4914 12.2922 11.4215V26.5794C12.2922 27.5096 11.5382 28.2636 10.608 28.2636C9.67787 28.2636 8.92383 27.5096 8.92383 26.5794V11.4215Z" fill="white"/>
</g>
<g filter="url(#filter1_d_54612_4250)">
<path d="M15.2422 18.1569C15.2422 17.2267 15.9962 16.4727 16.9264 16.4727C17.8566 16.4727 18.6106 17.2267 18.6106 18.1569V26.5779C18.6106 27.5081 17.8566 28.2621 16.9264 28.2621C15.9962 28.2621 15.2422 27.5081 15.2422 26.5779V18.1569Z" fill="white" fill-opacity="0.9" shape-rendering="crispEdges"/>
</g>
<g filter="url(#filter2_d_54612_4250)">
<path d="M21.5547 13.9459C21.5547 13.0158 22.3087 12.2617 23.2389 12.2617C24.1691 12.2617 24.9231 13.0158 24.9231 13.9459V26.5775C24.9231 27.5077 24.1691 28.2617 23.2389 28.2617C22.3087 28.2617 21.5547 27.5077 21.5547 26.5775V13.9459Z" fill="white" fill-opacity="0.7" shape-rendering="crispEdges"/>
</g>
<path d="M61.72 30V25.86H66.97C68.25 25.86 69.37 25.61 70.33 25.11C71.29 24.59 72.03 23.84 72.55 22.86C73.07 21.88 73.33 20.72 73.33 19.38C73.33 18.04 73.06 16.89 72.52 15.93C72 14.97 71.26 14.23 70.3 13.71C69.36 13.19 68.25 12.93 66.97 12.93H61.57V8.82H67.03C68.63 8.82 70.1 9.08 71.44 9.6C72.8 10.1 73.98 10.83 74.98 11.79C76 12.73 76.78 13.85 77.32 15.15C77.88 16.43 78.16 17.85 78.16 19.41C78.16 20.95 77.88 22.37 77.32 23.67C76.78 24.97 76.01 26.09 75.01 27.03C74.01 27.97 72.83 28.7 71.47 29.22C70.13 29.74 68.67 30 67.09 30H61.72ZM58.54 30V8.82H63.25V30H58.54ZM86.8272 30.3C85.4872 30.3 84.2872 29.97 83.2272 29.31C82.1872 28.65 81.3572 27.75 80.7372 26.61C80.1372 25.47 79.8372 24.17 79.8372 22.71C79.8372 21.25 80.1372 19.95 80.7372 18.81C81.3572 17.67 82.1872 16.77 83.2272 16.11C84.2872 15.45 85.4872 15.12 86.8272 15.12C87.8072 15.12 88.6872 15.31 89.4672 15.69C90.2672 16.07 90.9172 16.6 91.4172 17.28C91.9172 17.94 92.1972 18.7 92.2572 19.56V25.86C92.1972 26.72 91.9172 27.49 91.4172 28.17C90.9372 28.83 90.2972 29.35 89.4972 29.73C88.6972 30.11 87.8072 30.3 86.8272 30.3ZM87.7572 26.16C88.7372 26.16 89.5272 25.84 90.1272 25.2C90.7272 24.54 91.0272 23.71 91.0272 22.71C91.0272 22.03 90.8872 21.43 90.6072 20.91C90.3472 20.39 89.9672 19.99 89.4672 19.71C88.9872 19.41 88.4272 19.26 87.7872 19.26C87.1472 19.26 86.5772 19.41 86.0772 19.71C85.5972 19.99 85.2072 20.39 84.9072 20.91C84.6272 21.43 84.4872 22.03 84.4872 22.71C84.4872 23.37 84.6272 23.96 84.9072 24.48C85.1872 25 85.5772 25.41 86.0772 25.71C86.5772 26.01 87.1372 26.16 87.7572 26.16ZM90.8472 30V26.07L91.5372 22.53L90.8472 18.99V15.42H95.3472V30H90.8472ZM103.889 30.36C103.029 30.36 102.179 30.25 101.339 30.03C100.519 29.81 99.749 29.5 99.029 29.1C98.329 28.68 97.729 28.2 97.229 27.66L99.839 25.02C100.319 25.54 100.889 25.95 101.549 26.25C102.209 26.53 102.929 26.67 103.709 26.67C104.249 26.67 104.659 26.59 104.939 26.43C105.239 26.27 105.389 26.05 105.389 25.77C105.389 25.41 105.209 25.14 104.849 24.96C104.509 24.76 104.069 24.59 103.529 24.45C102.989 24.29 102.419 24.12 101.819 23.94C101.219 23.76 100.649 23.51 100.109 23.19C99.569 22.87 99.129 22.43 98.789 21.87C98.449 21.29 98.279 20.56 98.279 19.68C98.279 18.74 98.519 17.93 98.999 17.25C99.479 16.55 100.159 16 101.039 15.6C101.919 15.2 102.949 15 104.129 15C105.369 15 106.509 15.22 107.549 15.66C108.609 16.08 109.469 16.71 110.129 17.55L107.519 20.19C107.059 19.65 106.539 19.27 105.959 19.05C105.399 18.83 104.849 18.72 104.309 18.72C103.789 18.72 103.399 18.8 103.139 18.96C102.879 19.1 102.749 19.31 102.749 19.59C102.749 19.89 102.919 20.13 103.259 20.31C103.599 20.49 104.039 20.65 104.579 20.79C105.119 20.93 105.689 21.1 106.289 21.3C106.889 21.5 107.459 21.77 107.999 22.11C108.539 22.45 108.979 22.91 109.319 23.49C109.659 24.05 109.829 24.79 109.829 25.71C109.829 27.13 109.289 28.26 108.209 29.1C107.149 29.94 105.709 30.36 103.889 30.36ZM120.719 30.3C119.739 30.3 118.839 30.1 118.019 29.7C117.199 29.28 116.529 28.73 116.009 28.05C115.489 27.35 115.189 26.57 115.109 25.71V19.56C115.189 18.7 115.489 17.94 116.009 17.28C116.529 16.6 117.199 16.07 118.019 15.69C118.839 15.31 119.739 15.12 120.719 15.12C122.099 15.12 123.319 15.45 124.379 16.11C125.459 16.77 126.299 17.67 126.899 18.81C127.519 19.95 127.829 21.25 127.829 22.71C127.829 24.17 127.519 25.47 126.899 26.61C126.299 27.75 125.459 28.65 124.379 29.31C123.319 29.97 122.099 30.3 120.719 30.3ZM112.319 30V8.22H116.909V18.99L116.159 22.53L116.849 26.07V30H112.319ZM119.909 26.16C120.549 26.16 121.109 26.01 121.589 25.71C122.089 25.41 122.479 25 122.759 24.48C123.039 23.96 123.179 23.37 123.179 22.71C123.179 22.03 123.039 21.43 122.759 20.91C122.479 20.39 122.089 19.99 121.589 19.71C121.109 19.41 120.549 19.26 119.909 19.26C119.269 19.26 118.699 19.41 118.199 19.71C117.699 19.99 117.309 20.39 117.029 20.91C116.769 21.43 116.639 22.03 116.639 22.71C116.639 23.39 116.779 23.99 117.059 24.51C117.339 25.03 117.719 25.44 118.199 25.74C118.699 26.02 119.269 26.16 119.909 26.16ZM137.181 30.33C135.681 30.33 134.321 30 133.101 29.34C131.901 28.66 130.951 27.74 130.251 26.58C129.551 25.42 129.201 24.12 129.201 22.68C129.201 21.24 129.551 19.95 130.251 18.81C130.951 17.67 131.901 16.77 133.101 16.11C134.301 15.43 135.661 15.09 137.181 15.09C138.701 15.09 140.061 15.42 141.261 16.08C142.461 16.74 143.411 17.65 144.111 18.81C144.811 19.95 145.161 21.24 145.161 22.68C145.161 24.12 144.811 25.42 144.111 26.58C143.411 27.74 142.461 28.66 141.261 29.34C140.061 30 138.701 30.33 137.181 30.33ZM137.181 26.16C137.841 26.16 138.421 26.02 138.921 25.74C139.421 25.44 139.801 25.03 140.061 24.51C140.341 23.97 140.481 23.36 140.481 22.68C140.481 22 140.341 21.41 140.061 20.91C139.781 20.39 139.391 19.99 138.891 19.71C138.411 19.41 137.841 19.26 137.181 19.26C136.541 19.26 135.971 19.41 135.471 19.71C134.971 19.99 134.581 20.39 134.301 20.91C134.021 21.43 133.881 22.03 133.881 22.71C133.881 23.37 134.021 23.97 134.301 24.51C134.581 25.03 134.971 25.44 135.471 25.74C135.971 26.02 136.541 26.16 137.181 26.16ZM153.536 30.3C152.196 30.3 150.996 29.97 149.936 29.31C148.896 28.65 148.066 27.75 147.446 26.61C146.846 25.47 146.546 24.17 146.546 22.71C146.546 21.25 146.846 19.95 147.446 18.81C148.066 17.67 148.896 16.77 149.936 16.11C150.996 15.45 152.196 15.12 153.536 15.12C154.516 15.12 155.396 15.31 156.176 15.69C156.976 16.07 157.626 16.6 158.126 17.28C158.626 17.94 158.906 18.7 158.966 19.56V25.86C158.906 26.72 158.626 27.49 158.126 28.17C157.646 28.83 157.006 29.35 156.206 29.73C155.406 30.11 154.516 30.3 153.536 30.3ZM154.466 26.16C155.446 26.16 156.236 25.84 156.836 25.2C157.436 24.54 157.736 23.71 157.736 22.71C157.736 22.03 157.596 21.43 157.316 20.91C157.056 20.39 156.676 19.99 156.176 19.71C155.696 19.41 155.136 19.26 154.496 19.26C153.856 19.26 153.286 19.41 152.786 19.71C152.306 19.99 151.916 20.39 151.616 20.91C151.336 21.43 151.196 22.03 151.196 22.71C151.196 23.37 151.336 23.96 151.616 24.48C151.896 25 152.286 25.41 152.786 25.71C153.286 26.01 153.846 26.16 154.466 26.16ZM157.556 30V26.07L158.246 22.53L157.556 18.99V15.42H162.056V30H157.556ZM165.288 30V15.42H169.878V30H165.288ZM169.878 21.99L167.958 20.49C168.338 18.79 168.978 17.47 169.878 16.53C170.778 15.59 172.028 15.12 173.628 15.12C174.328 15.12 174.938 15.23 175.458 15.45C175.998 15.65 176.468 15.97 176.868 16.41L174.138 19.86C173.938 19.64 173.688 19.47 173.388 19.35C173.088 19.23 172.748 19.17 172.368 19.17C171.608 19.17 170.998 19.41 170.538 19.89C170.098 20.35 169.878 21.05 169.878 21.99ZM183.891 30.3C182.511 30.3 181.281 29.97 180.201 29.31C179.141 28.65 178.301 27.75 177.681 26.61C177.081 25.47 176.781 24.17 176.781 22.71C176.781 21.25 177.081 19.95 177.681 18.81C178.301 17.67 179.141 16.77 180.201 16.11C181.281 15.45 182.511 15.12 183.891 15.12C184.891 15.12 185.791 15.31 186.591 15.69C187.411 16.07 188.081 16.6 188.601 17.28C189.141 17.94 189.441 18.7 189.501 19.56V25.71C189.441 26.57 189.151 27.35 188.631 28.05C188.111 28.73 187.441 29.28 186.621 29.7C185.801 30.1 184.891 30.3 183.891 30.3ZM184.701 26.16C185.361 26.16 185.931 26.02 186.411 25.74C186.891 25.44 187.271 25.03 187.551 24.51C187.831 23.99 187.971 23.39 187.971 22.71C187.971 22.03 187.831 21.44 187.551 20.94C187.291 20.42 186.911 20.01 186.411 19.71C185.931 19.41 185.371 19.26 184.731 19.26C184.091 19.26 183.521 19.41 183.021 19.71C182.541 20.01 182.151 20.42 181.851 20.94C181.571 21.46 181.431 22.05 181.431 22.71C181.431 23.37 181.571 23.96 181.851 24.48C182.131 25 182.521 25.41 183.021 25.71C183.521 26.01 184.081 26.16 184.701 26.16ZM192.291 30H187.791V26.07L188.481 22.53L187.701 18.99V8.22H192.291V30Z" fill="#F5FAFF"/>
<defs>
<filter id="filter0_d_54612_4250" x="7.92383" y="9.2373" width="5.36865" height="20.5263" filterUnits="userSpaceOnUse" color-interpolation-filters="sRGB">
<feFlood flood-opacity="0" result="BackgroundImageFix"/>
<feColorMatrix in="SourceAlpha" type="matrix" values="0 0 0 0 0 0 0 0 0 0 0 0 0 0 0 0 0 0 127 0" result="hardAlpha"/>
<feOffset dy="0.5"/>
<feGaussianBlur stdDeviation="0.5"/>
<feComposite in2="hardAlpha" operator="out"/>
<feColorMatrix type="matrix" values="0 0 0 0 0 0 0 0 0 0 0 0 0 0 0 0 0 0 0.12 0"/>
<feBlend mode="normal" in2="BackgroundImageFix" result="effect1_dropShadow_54612_4250"/>
<feBlend mode="normal" in="SourceGraphic" in2="effect1_dropShadow_54612_4250" result="shape"/>
</filter>
<filter id="filter1_d_54612_4250" x="14.2422" y="15.9727" width="5.36865" height="13.7895" filterUnits="userSpaceOnUse" color-interpolation-filters="sRGB">
<feFlood flood-opacity="0" result="BackgroundImageFix"/>
<feColorMatrix in="SourceAlpha" type="matrix" values="0 0 0 0 0 0 0 0 0 0 0 0 0 0 0 0 0 0 127 0" result="hardAlpha"/>
<feOffset dy="0.5"/>
<feGaussianBlur stdDeviation="0.5"/>
<feComposite in2="hardAlpha" operator="out"/>
<feColorMatrix type="matrix" values="0 0 0 0 0 0 0 0 0 0 0 0 0 0 0 0 0 0 0.12 0"/>
<feBlend mode="normal" in2="BackgroundImageFix" result="effect1_dropShadow_54612_4250"/>
<feBlend mode="normal" in="SourceGraphic" in2="effect1_dropShadow_54612_4250" result="shape"/>
</filter>
<filter id="filter2_d_54612_4250" x="20.5547" y="11.7617" width="5.36865" height="18" filterUnits="userSpaceOnUse" color-interpolation-filters="sRGB">
<feFlood flood-opacity="0" result="BackgroundImageFix"/>
<feColorMatrix in="SourceAlpha" type="matrix" values="0 0 0 0 0 0 0 0 0 0 0 0 0 0 0 0 0 0 127 0" result="hardAlpha"/>
<feOffset dy="0.5"/>
<feGaussianBlur stdDeviation="0.5"/>
<feComposite in2="hardAlpha" operator="out"/>
<feColorMatrix type="matrix" values="0 0 0 0 0 0 0 0 0 0 0 0 0 0 0 0 0 0 0.12 0"/>
<feBlend mode="normal" in2="BackgroundImageFix" result="effect1_dropShadow_54612_4250"/>
<feBlend mode="normal" in="SourceGraphic" in2="effect1_dropShadow_54612_4250" result="shape"/>
</filter>
</defs>
</svg>
